<mxfile host="Electron" modified="2023-04-07T02:42:03.650Z" agent="Mozilla/5.0 (Windows NT 10.0; Win64; x64) AppleWebKit/537.36 (KHTML, like Gecko) draw.io/21.1.2 Chrome/106.0.5249.199 Electron/21.4.3 Safari/537.36" etag="ytlPvhZ5hE2hil70Z6Ob" version="21.1.2" type="device">
  <diagram name="Page-1" id="zIp_75Tj2olefpH6wEmV">
    <mxGraphModel dx="1970" dy="1642" grid="1" gridSize="10" guides="1" tooltips="1" connect="1" arrows="1" fold="1" page="1" pageScale="1" pageWidth="850" pageHeight="1100" math="0" shadow="0">
      <root>
        <mxCell id="0" />
        <mxCell id="1" parent="0" />
        <mxCell id="DKapiem6TMXHNw-3UVct-40" style="edgeStyle=orthogonalEdgeStyle;rounded=0;orthogonalLoop=1;jettySize=auto;html=1;entryX=0.5;entryY=0;entryDx=0;entryDy=0;" parent="1" source="DKapiem6TMXHNw-3UVct-2" target="DKapiem6TMXHNw-3UVct-39" edge="1">
          <mxGeometry relative="1" as="geometry" />
        </mxCell>
        <mxCell id="DKapiem6TMXHNw-3UVct-2" value="begin" style="ellipse;whiteSpace=wrap;html=1;aspect=fixed;" parent="1" vertex="1">
          <mxGeometry x="385.5" y="-90" width="80" height="80" as="geometry" />
        </mxCell>
        <mxCell id="DKapiem6TMXHNw-3UVct-3" value="end" style="ellipse;whiteSpace=wrap;html=1;aspect=fixed;" parent="1" vertex="1">
          <mxGeometry x="388" y="820" width="80" height="80" as="geometry" />
        </mxCell>
        <mxCell id="DKapiem6TMXHNw-3UVct-37" style="edgeStyle=orthogonalEdgeStyle;rounded=0;orthogonalLoop=1;jettySize=auto;html=1;exitX=0.5;exitY=1;exitDx=0;exitDy=0;entryX=0.5;entryY=0;entryDx=0;entryDy=0;" parent="1" source="DKapiem6TMXHNw-3UVct-7" target="DKapiem6TMXHNw-3UVct-36" edge="1">
          <mxGeometry relative="1" as="geometry">
            <mxPoint x="425.5" y="240" as="sourcePoint" />
            <mxPoint x="425.5" y="300" as="targetPoint" />
          </mxGeometry>
        </mxCell>
        <mxCell id="DKapiem6TMXHNw-3UVct-6" style="edgeStyle=orthogonalEdgeStyle;rounded=0;orthogonalLoop=1;jettySize=auto;html=1;exitX=1;exitY=0.5;exitDx=0;exitDy=0;entryX=0;entryY=0.5;entryDx=0;entryDy=0;" parent="1" source="DKapiem6TMXHNw-3UVct-7" target="DKapiem6TMXHNw-3UVct-8" edge="1">
          <mxGeometry relative="1" as="geometry">
            <mxPoint x="660" y="189.47058823529414" as="targetPoint" />
          </mxGeometry>
        </mxCell>
        <mxCell id="DKapiem6TMXHNw-3UVct-7" value="nhap(&amp;amp;soluong)" style="shape=process;whiteSpace=wrap;html=1;backgroundOutline=1;fillColor=#FFFF66;" parent="1" vertex="1">
          <mxGeometry x="320.5" y="155" width="210" height="70" as="geometry" />
        </mxCell>
        <mxCell id="DKapiem6TMXHNw-3UVct-8" value="" style="whiteSpace=wrap;html=1;aspect=fixed;fillColor=#FFFF00;" parent="1" vertex="1">
          <mxGeometry x="630" y="30" width="260" height="260" as="geometry" />
        </mxCell>
        <mxCell id="DKapiem6TMXHNw-3UVct-9" style="edgeStyle=orthogonalEdgeStyle;rounded=0;orthogonalLoop=1;jettySize=auto;html=1;entryX=0.5;entryY=0;entryDx=0;entryDy=0;" parent="1" source="DKapiem6TMXHNw-3UVct-10" target="DKapiem6TMXHNw-3UVct-14" edge="1">
          <mxGeometry relative="1" as="geometry" />
        </mxCell>
        <mxCell id="DKapiem6TMXHNw-3UVct-10" value="nhap(*tmp)" style="ellipse;whiteSpace=wrap;html=1;" parent="1" vertex="1">
          <mxGeometry x="655" y="40" width="210" height="60" as="geometry" />
        </mxCell>
        <mxCell id="DKapiem6TMXHNw-3UVct-11" style="edgeStyle=orthogonalEdgeStyle;rounded=0;orthogonalLoop=1;jettySize=auto;html=1;exitX=0.5;exitY=1;exitDx=0;exitDy=0;" parent="1" source="DKapiem6TMXHNw-3UVct-10" target="DKapiem6TMXHNw-3UVct-10" edge="1">
          <mxGeometry relative="1" as="geometry" />
        </mxCell>
        <mxCell id="DKapiem6TMXHNw-3UVct-12" value="return" style="ellipse;whiteSpace=wrap;html=1;" parent="1" vertex="1">
          <mxGeometry x="665" y="230" width="190" height="50" as="geometry" />
        </mxCell>
        <mxCell id="DKapiem6TMXHNw-3UVct-13" style="edgeStyle=orthogonalEdgeStyle;rounded=0;orthogonalLoop=1;jettySize=auto;html=1;entryX=0.5;entryY=0;entryDx=0;entryDy=0;" parent="1" source="DKapiem6TMXHNw-3UVct-14" target="DKapiem6TMXHNw-3UVct-12" edge="1">
          <mxGeometry relative="1" as="geometry" />
        </mxCell>
        <mxCell id="DKapiem6TMXHNw-3UVct-14" value="read tmp" style="rounded=0;whiteSpace=wrap;html=1;" parent="1" vertex="1">
          <mxGeometry x="662.5" y="130" width="195" height="70" as="geometry" />
        </mxCell>
        <mxCell id="DKapiem6TMXHNw-3UVct-47" style="edgeStyle=orthogonalEdgeStyle;rounded=0;orthogonalLoop=1;jettySize=auto;html=1;exitX=0.47;exitY=0.983;exitDx=0;exitDy=0;exitPerimeter=0;entryX=0.5;entryY=0;entryDx=0;entryDy=0;" parent="1" source="DKapiem6TMXHNw-3UVct-42" target="DKapiem6TMXHNw-3UVct-46" edge="1">
          <mxGeometry relative="1" as="geometry">
            <mxPoint x="425.5" y="540" as="sourcePoint" />
            <mxPoint x="425.5" y="580" as="targetPoint" />
            <Array as="points">
              <mxPoint x="430" y="524" />
              <mxPoint x="430" y="560" />
              <mxPoint x="433" y="560" />
            </Array>
          </mxGeometry>
        </mxCell>
        <mxCell id="DKapiem6TMXHNw-3UVct-19" style="edgeStyle=orthogonalEdgeStyle;rounded=0;orthogonalLoop=1;jettySize=auto;html=1;entryX=0.5;entryY=0;entryDx=0;entryDy=0;" parent="1" source="DKapiem6TMXHNw-3UVct-20" target="DKapiem6TMXHNw-3UVct-3" edge="1">
          <mxGeometry relative="1" as="geometry" />
        </mxCell>
        <mxCell id="DKapiem6TMXHNw-3UVct-20" value="print tien, thue" style="shape=parallelogram;perimeter=parallelogramPerimeter;whiteSpace=wrap;html=1;fixedSize=1;" parent="1" vertex="1">
          <mxGeometry x="335.5" y="720" width="185" height="60" as="geometry" />
        </mxCell>
        <mxCell id="DKapiem6TMXHNw-3UVct-21" value="" style="whiteSpace=wrap;html=1;aspect=fixed;fillColor=#FFFF33;" parent="1" vertex="1">
          <mxGeometry x="640" y="400" width="260" height="260" as="geometry" />
        </mxCell>
        <mxCell id="DKapiem6TMXHNw-3UVct-22" style="edgeStyle=orthogonalEdgeStyle;rounded=0;orthogonalLoop=1;jettySize=auto;html=1;entryX=0.5;entryY=0;entryDx=0;entryDy=0;" parent="1" source="DKapiem6TMXHNw-3UVct-23" target="DKapiem6TMXHNw-3UVct-26" edge="1">
          <mxGeometry relative="1" as="geometry" />
        </mxCell>
        <mxCell id="DKapiem6TMXHNw-3UVct-23" value="tinhtien(*tien,soluong,dongia)" style="ellipse;whiteSpace=wrap;html=1;" parent="1" vertex="1">
          <mxGeometry x="655" y="405" width="230" height="60" as="geometry" />
        </mxCell>
        <mxCell id="DKapiem6TMXHNw-3UVct-24" value="return" style="ellipse;whiteSpace=wrap;html=1;" parent="1" vertex="1">
          <mxGeometry x="677.5" y="595" width="185" height="60" as="geometry" />
        </mxCell>
        <mxCell id="DKapiem6TMXHNw-3UVct-25" style="edgeStyle=orthogonalEdgeStyle;rounded=0;orthogonalLoop=1;jettySize=auto;html=1;" parent="1" source="DKapiem6TMXHNw-3UVct-26" target="DKapiem6TMXHNw-3UVct-24" edge="1">
          <mxGeometry relative="1" as="geometry" />
        </mxCell>
        <mxCell id="DKapiem6TMXHNw-3UVct-26" value="*tien=soluong*dongia" style="rounded=0;whiteSpace=wrap;html=1;" parent="1" vertex="1">
          <mxGeometry x="665" y="495" width="210" height="65" as="geometry" />
        </mxCell>
        <mxCell id="DKapiem6TMXHNw-3UVct-27" style="edgeStyle=orthogonalEdgeStyle;rounded=0;orthogonalLoop=1;jettySize=auto;html=1;exitX=1;exitY=0;exitDx=0;exitDy=0;" parent="1" source="DKapiem6TMXHNw-3UVct-30" target="DKapiem6TMXHNw-3UVct-31" edge="1">
          <mxGeometry relative="1" as="geometry">
            <mxPoint x="90" y="90" as="targetPoint" />
          </mxGeometry>
        </mxCell>
        <mxCell id="DKapiem6TMXHNw-3UVct-28" style="edgeStyle=orthogonalEdgeStyle;rounded=0;orthogonalLoop=1;jettySize=auto;html=1;" parent="1" source="DKapiem6TMXHNw-3UVct-30" target="DKapiem6TMXHNw-3UVct-32" edge="1">
          <mxGeometry relative="1" as="geometry">
            <mxPoint x="130" y="220" as="targetPoint" />
          </mxGeometry>
        </mxCell>
        <mxCell id="DKapiem6TMXHNw-3UVct-29" style="edgeStyle=orthogonalEdgeStyle;rounded=0;orthogonalLoop=1;jettySize=auto;html=1;exitX=1;exitY=1;exitDx=0;exitDy=0;" parent="1" source="DKapiem6TMXHNw-3UVct-30" target="DKapiem6TMXHNw-3UVct-33" edge="1">
          <mxGeometry relative="1" as="geometry">
            <mxPoint x="140" y="390" as="targetPoint" />
          </mxGeometry>
        </mxCell>
        <mxCell id="DKapiem6TMXHNw-3UVct-30" value="&lt;div&gt;Nhập tên sản phẩm, số lượng và đơn giá.&lt;/div&gt;&lt;div&gt;Tính tiền và thuế giá trị gia tăng phải trả, biết:&lt;/div&gt;&lt;div&gt;a) tiền = số lượng * đơn giá&lt;/div&gt;&lt;div&gt;b) thuế giá trị gia tăng = 10% tiền&lt;/div&gt;" style="whiteSpace=wrap;html=1;aspect=fixed;" parent="1" vertex="1">
          <mxGeometry x="-170" y="125" width="190" height="190" as="geometry" />
        </mxCell>
        <mxCell id="DKapiem6TMXHNw-3UVct-31" value="input: tensp, soluong, dongia" style="rounded=0;whiteSpace=wrap;html=1;" parent="1" vertex="1">
          <mxGeometry x="80" y="20" width="120" height="60" as="geometry" />
        </mxCell>
        <mxCell id="DKapiem6TMXHNw-3UVct-32" value="process:&lt;br&gt;tien=soluong*dongia&lt;br&gt;thue=tien/100*10" style="rounded=0;whiteSpace=wrap;html=1;" parent="1" vertex="1">
          <mxGeometry x="90" y="170" width="120" height="100" as="geometry" />
        </mxCell>
        <mxCell id="DKapiem6TMXHNw-3UVct-33" value="output: tien, thue" style="rounded=0;whiteSpace=wrap;html=1;" parent="1" vertex="1">
          <mxGeometry x="90" y="360" width="120" height="60" as="geometry" />
        </mxCell>
        <mxCell id="DKapiem6TMXHNw-3UVct-43" style="edgeStyle=orthogonalEdgeStyle;rounded=0;orthogonalLoop=1;jettySize=auto;html=1;exitX=0.5;exitY=1;exitDx=0;exitDy=0;entryX=0.47;entryY=0.033;entryDx=0;entryDy=0;entryPerimeter=0;" parent="1" source="DKapiem6TMXHNw-3UVct-36" target="DKapiem6TMXHNw-3UVct-42" edge="1">
          <mxGeometry relative="1" as="geometry">
            <mxPoint x="425.5" y="400" as="sourcePoint" />
            <mxPoint x="426" y="470" as="targetPoint" />
          </mxGeometry>
        </mxCell>
        <mxCell id="DKapiem6TMXHNw-3UVct-38" style="edgeStyle=orthogonalEdgeStyle;rounded=0;orthogonalLoop=1;jettySize=auto;html=1;exitX=1;exitY=0.5;exitDx=0;exitDy=0;entryX=0.25;entryY=1;entryDx=0;entryDy=0;" parent="1" source="DKapiem6TMXHNw-3UVct-36" target="DKapiem6TMXHNw-3UVct-8" edge="1">
          <mxGeometry relative="1" as="geometry" />
        </mxCell>
        <mxCell id="DKapiem6TMXHNw-3UVct-36" value="nhap(&amp;amp;dongia)" style="shape=process;whiteSpace=wrap;html=1;backgroundOutline=1;fillColor=#FFFF66;" parent="1" vertex="1">
          <mxGeometry x="320.5" y="315" width="210" height="70" as="geometry" />
        </mxCell>
        <mxCell id="DKapiem6TMXHNw-3UVct-41" style="edgeStyle=orthogonalEdgeStyle;rounded=0;orthogonalLoop=1;jettySize=auto;html=1;entryX=0.5;entryY=0;entryDx=0;entryDy=0;" parent="1" source="DKapiem6TMXHNw-3UVct-39" target="DKapiem6TMXHNw-3UVct-7" edge="1">
          <mxGeometry relative="1" as="geometry">
            <mxPoint x="425.5" y="140" as="targetPoint" />
          </mxGeometry>
        </mxCell>
        <mxCell id="DKapiem6TMXHNw-3UVct-39" value="read tensp" style="shape=parallelogram;perimeter=parallelogramPerimeter;whiteSpace=wrap;html=1;fixedSize=1;" parent="1" vertex="1">
          <mxGeometry x="335.5" y="40" width="180" height="60" as="geometry" />
        </mxCell>
        <mxCell id="DKapiem6TMXHNw-3UVct-44" style="edgeStyle=orthogonalEdgeStyle;rounded=0;orthogonalLoop=1;jettySize=auto;html=1;exitX=1;exitY=0.5;exitDx=0;exitDy=0;" parent="1" source="DKapiem6TMXHNw-3UVct-42" target="DKapiem6TMXHNw-3UVct-21" edge="1">
          <mxGeometry relative="1" as="geometry" />
        </mxCell>
        <mxCell id="DKapiem6TMXHNw-3UVct-42" value="tinhtien(&amp;amp;tien,soluong,dongia)" style="shape=process;whiteSpace=wrap;html=1;backgroundOutline=1;fillColor=#FFFF66;" parent="1" vertex="1">
          <mxGeometry x="318" y="465" width="230" height="60" as="geometry" />
        </mxCell>
        <mxCell id="DKapiem6TMXHNw-3UVct-53" style="edgeStyle=orthogonalEdgeStyle;rounded=0;orthogonalLoop=1;jettySize=auto;html=1;entryX=0.5;entryY=0;entryDx=0;entryDy=0;exitX=0.5;exitY=1;exitDx=0;exitDy=0;" parent="1" source="DKapiem6TMXHNw-3UVct-46" target="DKapiem6TMXHNw-3UVct-20" edge="1">
          <mxGeometry relative="1" as="geometry">
            <mxPoint x="425.5" y="670" as="sourcePoint" />
          </mxGeometry>
        </mxCell>
        <mxCell id="DKapiem6TMXHNw-3UVct-52" style="edgeStyle=orthogonalEdgeStyle;rounded=0;orthogonalLoop=1;jettySize=auto;html=1;exitX=0;exitY=0.5;exitDx=0;exitDy=0;entryX=1;entryY=0.473;entryDx=0;entryDy=0;entryPerimeter=0;" parent="1" source="DKapiem6TMXHNw-3UVct-46" target="DKapiem6TMXHNw-3UVct-48" edge="1">
          <mxGeometry relative="1" as="geometry" />
        </mxCell>
        <mxCell id="DKapiem6TMXHNw-3UVct-46" value="tinhthue(&amp;amp;thue,tien)" style="shape=process;whiteSpace=wrap;html=1;backgroundOutline=1;fillColor=#FFFF66;" parent="1" vertex="1">
          <mxGeometry x="318" y="595" width="230" height="60" as="geometry" />
        </mxCell>
        <mxCell id="DKapiem6TMXHNw-3UVct-48" value="" style="whiteSpace=wrap;html=1;aspect=fixed;fillColor=#FFFF33;" parent="1" vertex="1">
          <mxGeometry x="-30" y="480" width="260" height="260" as="geometry" />
        </mxCell>
        <mxCell id="DKapiem6TMXHNw-3UVct-49" value="tinhthue(*thue,tien)" style="ellipse;whiteSpace=wrap;html=1;" parent="1" vertex="1">
          <mxGeometry x="-15" y="485" width="230" height="60" as="geometry" />
        </mxCell>
        <mxCell id="DKapiem6TMXHNw-3UVct-50" value="return" style="ellipse;whiteSpace=wrap;html=1;" parent="1" vertex="1">
          <mxGeometry x="7.5" y="675" width="185" height="60" as="geometry" />
        </mxCell>
        <mxCell id="DKapiem6TMXHNw-3UVct-51" value="*thue=tien/100*10" style="rounded=0;whiteSpace=wrap;html=1;" parent="1" vertex="1">
          <mxGeometry x="-5" y="575" width="210" height="65" as="geometry" />
        </mxCell>
      </root>
    </mxGraphModel>
  </diagram>
</mxfile>
